<svg width="11" height="14" viewBox="0 0 11 14" fill="none" xmlns="http://www.w3.org/2000/svg">
<path d="M5.61166 13.18C4.49566 13.18 3.54766 12.988 2.76766 12.604C1.99966 12.208 1.41166 11.65 1.00366 10.93C0.595656 10.198 0.367656 9.322 0.319656 8.302C0.307656 7.81 0.301656 7.282 0.301656 6.718C0.301656 6.154 0.307656 5.614 0.319656 5.098C0.367656 4.09 0.595656 3.22 1.00366 2.488C1.42366 1.756 2.01766 1.198 2.78566 0.813999C3.56566 0.417999 4.50766 0.219999 5.61166 0.219999C6.42766 0.219999 7.15966 0.327999 7.80766 0.543999C8.45566 0.76 9.00766 1.06 9.46366 1.444C9.91966 1.816 10.2737 2.254 10.5257 2.758C10.7777 3.262 10.9097 3.808 10.9217 4.396C10.9337 4.504 10.8977 4.594 10.8137 4.666C10.7417 4.738 10.6517 4.774 10.5437 4.774H8.83366C8.70166 4.774 8.59366 4.744 8.50966 4.684C8.42566 4.612 8.36566 4.498 8.32966 4.342C8.13766 3.55 7.80766 3.01 7.33966 2.722C6.87166 2.434 6.28966 2.29 5.59366 2.29C4.78966 2.29 4.14766 2.518 3.66766 2.974C3.18766 3.418 2.92966 4.156 2.89366 5.188C2.85766 6.172 2.85766 7.18 2.89366 8.212C2.92966 9.244 3.18766 9.988 3.66766 10.444C4.14766 10.888 4.78966 11.11 5.59366 11.11C6.28966 11.11 6.87166 10.966 7.33966 10.678C7.80766 10.378 8.13766 9.838 8.32966 9.058C8.36566 8.89 8.42566 8.776 8.50966 8.716C8.59366 8.656 8.70166 8.626 8.83366 8.626H10.5437C10.6517 8.626 10.7417 8.662 10.8137 8.734C10.8977 8.806 10.9337 8.896 10.9217 9.004C10.9097 9.592 10.7777 10.138 10.5257 10.642C10.2737 11.146 9.91966 11.59 9.46366 11.974C9.00766 12.346 8.45566 12.64 7.80766 12.856C7.15966 13.072 6.42766 13.18 5.61166 13.18Z" fill="#626C7F"/>
</svg>
