<svg width="11" height="13" viewBox="0 0 11 13" fill="none" xmlns="http://www.w3.org/2000/svg">
<path d="M1.16608 13C1.04608 13 0.944078 12.958 0.860078 12.874C0.776078 12.79 0.734078 12.688 0.734078 12.568V0.85C0.734078 0.717999 0.776078 0.609999 0.860078 0.526C0.944078 0.441999 1.04608 0.399999 1.16608 0.399999H6.38608C7.35808 0.399999 8.15008 0.549999 8.76208 0.85C9.37408 1.138 9.82408 1.54 10.1121 2.056C10.4121 2.572 10.5621 3.172 10.5621 3.856C10.5621 4.312 10.4781 4.714 10.3101 5.062C10.1541 5.398 9.95608 5.674 9.71608 5.89C9.48808 6.106 9.26008 6.274 9.03208 6.394C9.50008 6.61 9.91408 6.97 10.2741 7.474C10.6341 7.978 10.8141 8.578 10.8141 9.274C10.8141 9.994 10.6521 10.636 10.3281 11.2C10.0041 11.764 9.52408 12.208 8.88808 12.532C8.25208 12.844 7.46608 13 6.53008 13H1.16608ZM3.23608 11.092H6.24208C6.89008 11.092 7.38208 10.918 7.71808 10.57C8.05408 10.21 8.22208 9.778 8.22208 9.274C8.22208 8.746 8.04808 8.308 7.70008 7.96C7.36408 7.612 6.87808 7.438 6.24208 7.438H3.23608V11.092ZM3.23608 5.566H6.06208C6.69808 5.566 7.17208 5.416 7.48408 5.116C7.80808 4.804 7.97008 4.402 7.97008 3.91C7.97008 3.406 7.80808 3.016 7.48408 2.74C7.17208 2.452 6.69808 2.308 6.06208 2.308H3.23608V5.566Z" fill="#626C7F"/>
</svg>
