<svg width="11" height="13" viewBox="0 0 11 13" fill="none" xmlns="http://www.w3.org/2000/svg">
<path d="M1.00788 13C0.887875 13 0.785875 12.958 0.701875 12.874C0.617875 12.79 0.575875 12.688 0.575875 12.568V0.85C0.575875 0.717999 0.617875 0.609999 0.701875 0.526C0.785875 0.441999 0.887875 0.399999 1.00788 0.399999H5.39988C6.61188 0.399999 7.60788 0.585999 8.38788 0.957999C9.17988 1.33 9.77388 1.882 10.1699 2.614C10.5779 3.346 10.7879 4.24 10.7999 5.296C10.8239 5.824 10.8359 6.292 10.8359 6.7C10.8359 7.108 10.8239 7.57 10.7999 8.086C10.7759 9.202 10.5719 10.126 10.1879 10.858C9.80388 11.578 9.22188 12.118 8.44188 12.478C7.67388 12.826 6.68988 13 5.48988 13H1.00788ZM3.07788 10.93H5.39988C6.07188 10.93 6.61788 10.834 7.03788 10.642C7.45788 10.45 7.76388 10.144 7.95588 9.724C8.15988 9.292 8.26788 8.728 8.27988 8.032C8.29188 7.672 8.29788 7.36 8.29788 7.096C8.30988 6.82 8.30988 6.55 8.29788 6.286C8.29788 6.01 8.29188 5.698 8.27988 5.35C8.25588 4.366 8.00988 3.64 7.54188 3.172C7.07388 2.704 6.32988 2.47 5.30988 2.47H3.07788V10.93Z" fill="#626C7F"/>
</svg>
