<svg width="13" height="13" viewBox="0 0 13 13" fill="none" xmlns="http://www.w3.org/2000/svg">
<path d="M0.889766 13C0.793766 13 0.703766 12.964 0.619766 12.892C0.547766 12.82 0.511766 12.73 0.511766 12.622C0.511766 12.574 0.523766 12.52 0.547766 12.46L4.88577 0.85C4.92177 0.729999 4.98777 0.627999 5.08377 0.543999C5.19177 0.447999 5.33577 0.399999 5.51577 0.399999H7.47777C7.65777 0.399999 7.79577 0.447999 7.89177 0.543999C7.98777 0.627999 8.05977 0.729999 8.10777 0.85L12.4458 12.46C12.4578 12.52 12.4638 12.574 12.4638 12.622C12.4638 12.73 12.4278 12.82 12.3558 12.892C12.2838 12.964 12.1998 13 12.1038 13H10.5378C10.3698 13 10.2438 12.964 10.1598 12.892C10.0878 12.808 10.0398 12.73 10.0158 12.658L9.16977 10.462H3.82377L2.97777 12.658C2.95377 12.73 2.89977 12.808 2.81577 12.892C2.74377 12.964 2.62377 13 2.45577 13H0.889766ZM4.45377 8.392H8.53977L6.48777 2.83L4.45377 8.392Z" fill="#626C7F"/>
</svg>
